<svg xmlns="http://www.w3.org/2000/svg" xmlns:xlink="http://www.w3.org/1999/xlink" width="960" height="600" viewBox="0 0 960 600">
<defs></defs>
<rect width="960" height="600" fill="#0C1424"></rect>
<polygon points="657.6,0 960,0 960,600 528,600" fill="#E20613"></polygon>
<polygon points="744,0 787.2,0 614.4,600 571.2,600" fill="#000000" opacity="0.18"></polygon>
<rect x="0" y="0" width="6" height="600" fill="#E20613"></rect>
<rect x="50" y="44" width="150" height="30" fill="#E20613"></rect>
<text x="63" y="64" font-size="12.5" font-weight="700" letter-spacing="2.2" fill="#ffffff">SUSPENSION</text>
<text x="529" y="64" text-anchor="end" font-size="12.5" font-weight="500" letter-spacing="2.5" fill="#ffffff" fill-opacity="0.5">MAX-1201</text>
<text x="48" y="150" font-size="52" font-weight="800" letter-spacing="-0.5" fill="#ffffff">SHOCK ABSORBER</text>
<rect x="50" y="178" width="30" height="2" fill="#E20613"></rect>
<text x="92" y="186" font-size="14.5" font-weight="600" letter-spacing="1.4" fill="#E20613">SUPERIOR CONTROL. SMOOTHER RIDE.</text>
<rect x="139" y="248" width="300" height="188" fill="none" stroke="#ffffff" stroke-opacity="0.22" stroke-width="1.5" stroke-dasharray="6 6"></rect>
<text x="289" y="338" text-anchor="middle" font-size="13" font-weight="600" letter-spacing="2.4" fill="#ffffff" fill-opacity="0.42">PRODUCT SHOT</text>
<text x="289" y="358" text-anchor="middle" font-size="10" font-weight="500" letter-spacing="1.2" fill="#ffffff" fill-opacity="0.28">place image here</text>
  <circle cx="89" cy="500" r="27" fill="none" stroke="#ffffff" stroke-opacity="0.28" stroke-width="1"></circle>
  <image x="76" y="487" width="26" height="26"></image>
  <text x="89" y="548" text-anchor="middle" font-size="9.5" font-weight="600" letter-spacing="0.9" fill="#B9C2CF">OE QUALITY</text>
  <circle cx="197" cy="500" r="27" fill="none" stroke="#ffffff" stroke-opacity="0.28" stroke-width="1"></circle>
  <image x="184" y="487" width="26" height="26"></image>
  <text x="197" y="548" text-anchor="middle" font-size="9.5" font-weight="600" letter-spacing="0.9" fill="#B9C2CF">LONG LIFE</text>
  <circle cx="305" cy="500" r="27" fill="none" stroke="#ffffff" stroke-opacity="0.28" stroke-width="1"></circle>
  <image x="292" y="487" width="26" height="26"></image>
  <text x="305" y="548" text-anchor="middle" font-size="9.5" font-weight="600" letter-spacing="0.9" fill="#B9C2CF">SAFETY TESTED</text>
<image x="675" y="206" width="172" height="88"></image>
<rect x="666" y="470" width="190" height="64" fill="#ffffff"></rect>
<rect x="678.0" y="478" width="2" height="42" fill="#0C1424"></rect><rect x="683.0" y="478" width="4" height="42" fill="#0C1424"></rect><rect x="688.0" y="478" width="2" height="42" fill="#0C1424"></rect><rect x="693.0" y="478" width="4" height="42" fill="#0C1424"></rect><rect x="698.0" y="478" width="2" height="42" fill="#0C1424"></rect><rect x="703.0" y="478" width="4" height="42" fill="#0C1424"></rect><rect x="708.0" y="478" width="2" height="42" fill="#0C1424"></rect><rect x="713.0" y="478" width="4" height="42" fill="#0C1424"></rect><rect x="718.0" y="478" width="2" height="42" fill="#0C1424"></rect><rect x="723.0" y="478" width="4" height="42" fill="#0C1424"></rect><rect x="728.0" y="478" width="2" height="42" fill="#0C1424"></rect><rect x="733.0" y="478" width="4" height="42" fill="#0C1424"></rect><rect x="738.0" y="478" width="2" height="42" fill="#0C1424"></rect><rect x="743.0" y="478" width="4" height="42" fill="#0C1424"></rect><rect x="748.0" y="478" width="2" height="42" fill="#0C1424"></rect><rect x="753.0" y="478" width="4" height="42" fill="#0C1424"></rect><rect x="758.0" y="478" width="2" height="42" fill="#0C1424"></rect><rect x="763.0" y="478" width="4" height="42" fill="#0C1424"></rect><rect x="768.0" y="478" width="2" height="42" fill="#0C1424"></rect><rect x="773.0" y="478" width="4" height="42" fill="#0C1424"></rect><rect x="778.0" y="478" width="2" height="42" fill="#0C1424"></rect><rect x="783.0" y="478" width="4" height="42" fill="#0C1424"></rect><rect x="788.0" y="478" width="2" height="42" fill="#0C1424"></rect><rect x="793.0" y="478" width="4" height="42" fill="#0C1424"></rect><rect x="798.0" y="478" width="2" height="42" fill="#0C1424"></rect><rect x="803.0" y="478" width="4" height="42" fill="#0C1424"></rect><rect x="808.0" y="478" width="2" height="42" fill="#0C1424"></rect><rect x="813.0" y="478" width="4" height="42" fill="#0C1424"></rect><rect x="818.0" y="478" width="2" height="42" fill="#0C1424"></rect><rect x="823.0" y="478" width="4" height="42" fill="#0C1424"></rect><rect x="828.0" y="478" width="2" height="42" fill="#0C1424"></rect><rect x="833.0" y="478" width="4" height="42" fill="#0C1424"></rect><rect x="838.0" y="478" width="2" height="42" fill="#0C1424"></rect><rect x="843.0" y="478" width="4" height="42" fill="#0C1424"></rect><rect x="848.0" y="478" width="2" height="42" fill="#0C1424"></rect><rect x="853.0" y="478" width="4" height="42" fill="#0C1424"></rect>
<text x="761" y="530" text-anchor="middle" font-size="10" font-weight="600" letter-spacing="2.8" fill="#0C1424">MAX-1201</text>
<text x="761" y="552" text-anchor="middle" font-size="9.5" font-weight="500" letter-spacing="1.3" fill="#ffffff" fill-opacity="0.78">MEETS OR EXCEEDS</text>
<text x="761" y="564" text-anchor="middle" font-size="9.5" font-weight="500" letter-spacing="1.3" fill="#ffffff" fill-opacity="0.78">OEM SPECIFICATIONS</text>
</svg>