<svg xmlns="http://www.w3.org/2000/svg" width="1600" height="1392" viewBox="0 0 1600 1392" font-family="Montserrat, Arial, sans-serif"><defs><symbol id="front" viewBox="0 0 960 600" overflow="visible"><rect width="960" height="600" fill="#0C1424"></rect><polygon points="657.6,0 960,0 960,600 528,600" fill="#E20613"></polygon><polygon points="744,0 787.2,0 614.4,600 571.2,600" fill="#000" opacity="0.18"></polygon><rect width="6" height="600" fill="#E20613"></rect><rect x="50" y="44" width="150" height="30" fill="#E20613"></rect><text x="63" y="64" font-size="12.5" font-weight="700" letter-spacing="2.2" fill="#fff">SUSPENSION</text><text x="529" y="64" text-anchor="end" font-size="12.5" font-weight="500" letter-spacing="2.5" fill="#fff" fill-opacity="0.5">MAX-1201</text><text x="48" y="150" font-size="52" font-weight="800" letter-spacing="-0.5" fill="#fff">SHOCK ABSORBER</text><rect x="50" y="178" width="30" height="2" fill="#E20613"></rect><text x="92" y="186" font-size="14.5" font-weight="600" letter-spacing="1.4" fill="#E20613">SUPERIOR CONTROL. SMOOTHER RIDE.</text><rect x="139" y="250" width="300" height="184" fill="none" stroke="#fff" stroke-opacity="0.22" stroke-width="1.5" stroke-dasharray="6 6"></rect><text x="289" y="338" text-anchor="middle" font-size="13" font-weight="600" letter-spacing="2.4" fill="#fff" fill-opacity="0.4">PRODUCT IMAGE</text><text x="289" y="358" text-anchor="middle" font-size="10" font-weight="500" letter-spacing="1.2" fill="#fff" fill-opacity="0.28">place hi-res render here</text><circle cx="89" cy="500" r="27" fill="none" stroke="#fff" stroke-opacity="0.3" stroke-width="1.2"></circle><image x="76" y="487" width="26" height="26"></image><text x="89" y="548" text-anchor="middle" font-size="9.5" font-weight="600" letter-spacing="0.9" fill="#B9C2CF">OE QUALITY</text><circle cx="197" cy="500" r="27" fill="none" stroke="#fff" stroke-opacity="0.3" stroke-width="1.2"></circle><image x="184" y="487" width="26" height="26"></image><text x="197" y="548" text-anchor="middle" font-size="9.5" font-weight="600" letter-spacing="0.9" fill="#B9C2CF">LONG LIFE</text><circle cx="305" cy="500" r="27" fill="none" stroke="#fff" stroke-opacity="0.3" stroke-width="1.2"></circle><image x="292" y="487" width="26" height="26"></image><text x="305" y="548" text-anchor="middle" font-size="9.5" font-weight="600" letter-spacing="0.9" fill="#B9C2CF">SAFETY TESTED</text><image x="672" y="212" width="258.8914549653579" height="100"></image><rect x="666" y="470" width="190" height="64" fill="#fff"></rect><rect x="678.0" y="478" width="2" height="42" fill="#0C1424"></rect><rect x="683.0" y="478" width="4" height="42" fill="#0C1424"></rect><rect x="688.0" y="478" width="2" height="42" fill="#0C1424"></rect><rect x="693.0" y="478" width="4" height="42" fill="#0C1424"></rect><rect x="698.0" y="478" width="2" height="42" fill="#0C1424"></rect><rect x="703.0" y="478" width="4" height="42" fill="#0C1424"></rect><rect x="708.0" y="478" width="2" height="42" fill="#0C1424"></rect><rect x="713.0" y="478" width="4" height="42" fill="#0C1424"></rect><rect x="718.0" y="478" width="2" height="42" fill="#0C1424"></rect><rect x="723.0" y="478" width="4" height="42" fill="#0C1424"></rect><rect x="728.0" y="478" width="2" height="42" fill="#0C1424"></rect><rect x="733.0" y="478" width="4" height="42" fill="#0C1424"></rect><rect x="738.0" y="478" width="2" height="42" fill="#0C1424"></rect><rect x="743.0" y="478" width="4" height="42" fill="#0C1424"></rect><rect x="748.0" y="478" width="2" height="42" fill="#0C1424"></rect><rect x="753.0" y="478" width="4" height="42" fill="#0C1424"></rect><rect x="758.0" y="478" width="2" height="42" fill="#0C1424"></rect><rect x="763.0" y="478" width="4" height="42" fill="#0C1424"></rect><rect x="768.0" y="478" width="2" height="42" fill="#0C1424"></rect><rect x="773.0" y="478" width="4" height="42" fill="#0C1424"></rect><rect x="778.0" y="478" width="2" height="42" fill="#0C1424"></rect><rect x="783.0" y="478" width="4" height="42" fill="#0C1424"></rect><rect x="788.0" y="478" width="2" height="42" fill="#0C1424"></rect><rect x="793.0" y="478" width="4" height="42" fill="#0C1424"></rect><rect x="798.0" y="478" width="2" height="42" fill="#0C1424"></rect><rect x="803.0" y="478" width="4" height="42" fill="#0C1424"></rect><rect x="808.0" y="478" width="2" height="42" fill="#0C1424"></rect><rect x="813.0" y="478" width="4" height="42" fill="#0C1424"></rect><rect x="818.0" y="478" width="2" height="42" fill="#0C1424"></rect><rect x="823.0" y="478" width="4" height="42" fill="#0C1424"></rect><rect x="828.0" y="478" width="2" height="42" fill="#0C1424"></rect><rect x="833.0" y="478" width="4" height="42" fill="#0C1424"></rect><rect x="838.0" y="478" width="2" height="42" fill="#0C1424"></rect><rect x="843.0" y="478" width="4" height="42" fill="#0C1424"></rect><rect x="848.0" y="478" width="2" height="42" fill="#0C1424"></rect><rect x="853.0" y="478" width="4" height="42" fill="#0C1424"></rect><text x="761" y="530" text-anchor="middle" font-size="10" font-weight="600" letter-spacing="2.8" fill="#0C1424">MAX-1201</text><text x="761" y="552" text-anchor="middle" font-size="9" font-weight="500" letter-spacing="1.2" fill="#fff" fill-opacity="0.72">MEETS OR EXCEEDS OEM SPEC</text></symbol><symbol id="back" viewBox="0 0 960 600" overflow="visible"><rect width="960" height="600" fill="#0C1424"></rect><polygon points="0,0 300,0 170,600 0,600" fill="#E20613"></polygon><polygon points="212,0 250,0 128,600 90,600" fill="#000" opacity="0.15"></polygon><rect x="906" y="0" width="6" height="600" fill="#E20613"></rect><image x="470" y="70" width="222.64665127020783" height="86"></image><text x="470" y="220" font-size="15" font-weight="700" letter-spacing="1.5" fill="#fff">FEATURES</text><rect x="470" y="232" width="34" height="2" fill="#E20613"></rect><circle cx="476" cy="262" r="3" fill="#E20613"></circle><text x="490" y="267" font-size="13" font-weight="500" fill="#C7CED6">OE-matched fit &amp; performance</text><circle cx="476" cy="292" r="3" fill="#E20613"></circle><text x="490" y="297" font-size="13" font-weight="500" fill="#C7CED6">Corrosion-resistant finish</text><circle cx="476" cy="322" r="3" fill="#E20613"></circle><text x="490" y="327" font-size="13" font-weight="500" fill="#C7CED6">100% quality inspected</text><circle cx="476" cy="352" r="3" fill="#E20613"></circle><text x="490" y="357" font-size="13" font-weight="500" fill="#C7CED6">Backed by MAX warranty</text><text x="470" y="430" font-size="12" font-weight="600" letter-spacing="1.4" fill="#8A93A0">APPLICATION</text><text x="470" y="452" font-size="12" font-weight="500" fill="#C7CED6">Scan QR / part no. to verify vehicle fit.</text><rect x="470" y="486" width="60" height="60" fill="#fff"></rect><rect x="478" y="494" width="44" height="44" fill="#0C1424"></rect><rect x="486" y="502" width="28" height="28" fill="#fff"></rect><rect x="494" y="510" width="12" height="12" fill="#0C1424"></rect><rect x="700" y="470" width="190" height="72" fill="#fff"></rect><rect x="712.0" y="478" width="2" height="40" fill="#0C1424"></rect><rect x="717.0" y="478" width="4" height="40" fill="#0C1424"></rect><rect x="722.0" y="478" width="2" height="40" fill="#0C1424"></rect><rect x="727.0" y="478" width="4" height="40" fill="#0C1424"></rect><rect x="732.0" y="478" width="2" height="40" fill="#0C1424"></rect><rect x="737.0" y="478" width="4" height="40" fill="#0C1424"></rect><rect x="742.0" y="478" width="2" height="40" fill="#0C1424"></rect><rect x="747.0" y="478" width="4" height="40" fill="#0C1424"></rect><rect x="752.0" y="478" width="2" height="40" fill="#0C1424"></rect><rect x="757.0" y="478" width="4" height="40" fill="#0C1424"></rect><rect x="762.0" y="478" width="2" height="40" fill="#0C1424"></rect><rect x="767.0" y="478" width="4" height="40" fill="#0C1424"></rect><rect x="772.0" y="478" width="2" height="40" fill="#0C1424"></rect><rect x="777.0" y="478" width="4" height="40" fill="#0C1424"></rect><rect x="782.0" y="478" width="2" height="40" fill="#0C1424"></rect><rect x="787.0" y="478" width="4" height="40" fill="#0C1424"></rect><rect x="792.0" y="478" width="2" height="40" fill="#0C1424"></rect><rect x="797.0" y="478" width="4" height="40" fill="#0C1424"></rect><rect x="802.0" y="478" width="2" height="40" fill="#0C1424"></rect><rect x="807.0" y="478" width="4" height="40" fill="#0C1424"></rect><rect x="812.0" y="478" width="2" height="40" fill="#0C1424"></rect><rect x="817.0" y="478" width="4" height="40" fill="#0C1424"></rect><rect x="822.0" y="478" width="2" height="40" fill="#0C1424"></rect><rect x="827.0" y="478" width="4" height="40" fill="#0C1424"></rect><rect x="832.0" y="478" width="2" height="40" fill="#0C1424"></rect><rect x="837.0" y="478" width="4" height="40" fill="#0C1424"></rect><rect x="842.0" y="478" width="2" height="40" fill="#0C1424"></rect><rect x="847.0" y="478" width="4" height="40" fill="#0C1424"></rect><rect x="852.0" y="478" width="2" height="40" fill="#0C1424"></rect><rect x="857.0" y="478" width="4" height="40" fill="#0C1424"></rect><rect x="862.0" y="478" width="2" height="40" fill="#0C1424"></rect><rect x="867.0" y="478" width="4" height="40" fill="#0C1424"></rect><rect x="872.0" y="478" width="2" height="40" fill="#0C1424"></rect><rect x="877.0" y="478" width="4" height="40" fill="#0C1424"></rect><rect x="882.0" y="478" width="2" height="40" fill="#0C1424"></rect><rect x="887.0" y="478" width="4" height="40" fill="#0C1424"></rect><text x="795" y="530" text-anchor="middle" font-size="10" font-weight="600" letter-spacing="2.6" fill="#0C1424">6 123456 789012</text><text x="470" y="566" font-size="10" font-weight="500" letter-spacing="1.5" fill="#6E7B8C">www.maxautoparts.com</text><text x="890" y="566" text-anchor="end" font-size="10" font-weight="600" letter-spacing="1.5" fill="#6E7B8C">MADE IN PRC</text></symbol><symbol id="side" viewBox="0 0 264 600" overflow="visible"><rect width="264" height="600" fill="#0C1424"></rect><rect x="0" y="0" width="264" height="70" fill="#E20613"></rect><rect x="0" y="530" width="264" height="70" fill="#E20613"></rect><text x="132" y="330" text-anchor="middle" font-size="30" font-weight="800" letter-spacing="1" fill="#fff" transform="rotate(-90 132 320)">SHOCK ABSORBER</text><text x="132" y="360" text-anchor="middle" font-size="13" font-weight="600" letter-spacing="2" fill="#E20613" transform="rotate(-90 132 360)">MAX-1201</text><image x="49.15473441108546" y="24" width="82.848" height="32"></image><text x="132" y="572" text-anchor="middle" font-size="11" font-weight="700" letter-spacing="2" fill="#fff">SUSPENSION</text></symbol></defs><rect width="1600" height="1392" fill="#0A0F1A"></rect><rect x="0" y="0" width="1600" height="96" fill="#E20613"></rect><image x="48" y="26" width="113.9122401847575" height="44"></image><text x="1552" y="42" text-anchor="end" font-family="Saira" font-size="18" font-weight="800" letter-spacing="2" fill="#fff">PACKAGING SPECIFICATION</text><text x="1552" y="66" text-anchor="end" font-size="12.5" font-weight="600" letter-spacing="2.5" fill="#fff" fill-opacity="0.8">SUSPENSION LINE · MAX-1201 · RED MASTER</text><text x="48" y="150" font-family="Saira" font-size="16" font-weight="700" letter-spacing="2" fill="#fff">01 — FRONT PANEL · PRINT-READY TEMPLATE</text><rect x="48" y="160" width="40" height="2.5" fill="#E20613"></rect><use href="#front" x="48" y="176" width="708" height="442.5"></use><rect x="48" y="176" width="708" height="442.5" fill="none" stroke="#ffffff" stroke-opacity="0.1"></rect><rect x="812" y="170" width="740" height="450" fill="#0E1420" stroke="#ffffff" stroke-opacity="0.08"></rect><text x="828" y="210" font-family="Saira" font-size="15" font-weight="700" letter-spacing="2" fill="#fff">PRINT &amp; MATERIAL SPECIFICATION</text><rect x="828" y="222" width="40" height="2.5" fill="#E20613"></rect><text x="828" y="258" font-size="12" font-weight="600" letter-spacing="1" fill="#8A93A0">CARTON STYLE</text><text x="1536" y="258" text-anchor="end" font-size="13" font-weight="600" fill="#EDEDED">Straight Tuck End (STE)</text><line x1="828" y1="271" x2="1536" y2="271" stroke="#ffffff" stroke-opacity="0.08"></line><text x="828" y="288" font-size="12" font-weight="600" letter-spacing="1" fill="#8A93A0">FLAT SIZE</text><text x="1536" y="288" text-anchor="end" font-size="13" font-weight="600" fill="#EDEDED">528 × 215 mm</text><line x1="828" y1="301" x2="1536" y2="301" stroke="#ffffff" stroke-opacity="0.08"></line><text x="828" y="318" font-size="12" font-weight="600" letter-spacing="1" fill="#8A93A0">FOLDED (L×D×H)</text><text x="1536" y="318" text-anchor="end" font-size="13" font-weight="600" fill="#EDEDED">200 × 55 × 125 mm</text><line x1="828" y1="331" x2="1536" y2="331" stroke="#ffffff" stroke-opacity="0.08"></line><text x="828" y="348" font-size="12" font-weight="600" letter-spacing="1" fill="#8A93A0">BOARD</text><text x="1536" y="348" text-anchor="end" font-size="13" font-weight="600" fill="#EDEDED">350 gsm C1S folding boxboard</text><line x1="828" y1="361" x2="1536" y2="361" stroke="#ffffff" stroke-opacity="0.08"></line><text x="828" y="378" font-size="12" font-weight="600" letter-spacing="1" fill="#8A93A0">PRINT</text><text x="1536" y="378" text-anchor="end" font-size="13" font-weight="600" fill="#EDEDED">2 colours — spot</text><line x1="828" y1="391" x2="1536" y2="391" stroke="#ffffff" stroke-opacity="0.08"></line><text x="828" y="408" font-size="12" font-weight="600" letter-spacing="1" fill="#8A93A0">FINISH</text><text x="1536" y="408" text-anchor="end" font-size="13" font-weight="600" fill="#EDEDED">Matte lamination + spot-UV logo</text><line x1="828" y1="421" x2="1536" y2="421" stroke="#ffffff" stroke-opacity="0.08"></line><text x="828" y="438" font-size="12" font-weight="600" letter-spacing="1" fill="#8A93A0">BLEED / SAFETY</text><text x="1536" y="438" text-anchor="end" font-size="13" font-weight="600" fill="#EDEDED">3 mm bleed · 4 mm safety</text><line x1="828" y1="451" x2="1536" y2="451" stroke="#ffffff" stroke-opacity="0.08"></line><text x="828" y="486" font-size="12" font-weight="600" letter-spacing="1" fill="#8A93A0">SPOT COLOURS</text><rect x="828" y="500" width="46" height="46" fill="#E20613"></rect><text x="884" y="518" font-size="12.5" font-weight="700" fill="#EDEDED">MAX RED</text><text x="884" y="536" font-size="11.5" font-weight="500" fill="#8A93A0">#E20613 · PANTONE 485 C</text><rect x="1120" y="500" width="46" height="46" fill="#0C1424" stroke="#ffffff" stroke-opacity="0.15"></rect><text x="1176" y="518" font-size="12.5" font-weight="700" fill="#EDEDED">CARBON NAVY</text><text x="1176" y="536" font-size="11.5" font-weight="500" fill="#8A93A0">#0C1424 · PANTONE 5255 C</text><text x="828" y="586" font-size="11.5" font-weight="500" fill="#6E7B8C">Type: Saira (display) · Montserrat (text). Logo supplied as vector; convert all copy to outlines before output.</text><text x="140" y="668" font-family="Saira" font-size="16" font-weight="700" letter-spacing="2" fill="#fff">02 — 2D DIELINE / NET · FACTORY CUTTING GUIDE</text><rect x="140" y="678" width="40" height="2.5" fill="#E20613"></rect><g transform="translate(140,690)"><rect x="0" y="-14" width="1320" height="1" fill="#ffffff" fill-opacity="0.08"></rect><line x1="0" y1="6" x2="34" y2="6" stroke="#E20613" stroke-width="2"></line><text x="44" y="10" font-size="12" font-weight="600" fill="#C7CED6">CUT LINE</text><line x1="150" y1="6" x2="184" y2="6" stroke="#7DE0FF" stroke-width="2" stroke-dasharray="6 4"></line><text x="194" y="10" font-size="12" font-weight="600" fill="#C7CED6">CREASE / FOLD</text><rect x="330" y="0" width="22" height="12" fill="#E20613" fill-opacity="0.18" stroke="#E20613" stroke-width="1"></rect><text x="362" y="10" font-size="12" font-weight="600" fill="#C7CED6">GLUE AREA</text><text x="1320" y="10" text-anchor="end" font-size="12" font-weight="600" letter-spacing="1.5" fill="#6E7B8C">NOT TO SCALE · DIMENSIONS IN MILLIMETRES</text></g><g transform="translate(140,742) scale(2.5)"><use href="#back" x="18" y="45" width="200" height="125"></use><use href="#side" x="218" y="45" width="55" height="125"></use><use href="#front" x="273" y="45" width="200" height="125"></use><use href="#side" x="473" y="45" width="55" height="125"></use><path d="M20.2,45 L20.2,10 Q20.2,0 30.2,0 L103,0 A15,15 0 0 0 133,0 L205.8,0 Q215.8,0 215.8,10 L215.8,45" stroke="#E20613" stroke-width="0.9" fill="none"></path><path d="M220.2,45 L234.2,3 L256.8,3 L270.8,45" stroke="#E20613" stroke-width="0.9" fill="none"></path><path d="M275.2,45 L275.2,10 Q275.2,0 285.2,0 L358,0 A15,15 0 0 0 388,0 L460.8,0 Q470.8,0 470.8,10 L470.8,45" stroke="#E20613" stroke-width="0.9" fill="none"></path><path d="M475.2,45 L489.2,3 L511.79999999999995,3 L525.8,45" stroke="#E20613" stroke-width="0.9" fill="none"></path><path d="M20.2,170 L20.2,205 Q20.2,215 30.2,215 L103,215 A15,15 0 0 1 133,215 L205.8,215 Q215.8,215 215.8,205 L215.8,170" stroke="#E20613" stroke-width="0.9" fill="none"></path><path d="M220.2,170 L234.2,212 L256.8,212 L270.8,170" stroke="#E20613" stroke-width="0.9" fill="none"></path><path d="M275.2,170 L275.2,205 Q275.2,215 285.2,215 L358,215 A15,15 0 0 1 388,215 L460.8,215 Q470.8,215 470.8,205 L470.8,170" stroke="#E20613" stroke-width="0.9" fill="none"></path><path d="M475.2,170 L489.2,212 L511.79999999999995,212 L525.8,170" stroke="#E20613" stroke-width="0.9" fill="none"></path><line x1="528" y1="45" x2="528" y2="170" stroke="#E20613" stroke-width="0.9" fill="none"></line><path d="M18,45 L14,45 L0,59 L0,156 L14,170 L18,170" fill="#E20613" fill-opacity="0.18" stroke="#E20613" stroke-width="0.9"></path><g stroke="#E20613" stroke-width="0.4" opacity="0.5"><line x1="2" y1="170" x2="18" y2="45"></line><line x1="4" y1="170" x2="18" y2="58.888888888888886"></line><line x1="6" y1="170" x2="18" y2="72.77777777777777"></line><line x1="8" y1="170" x2="18" y2="86.66666666666667"></line><line x1="10" y1="170" x2="18" y2="100.55555555555556"></line><line x1="12" y1="170" x2="18" y2="114.44444444444444"></line><line x1="14" y1="170" x2="18" y2="128.33333333333334"></line><line x1="16" y1="170" x2="18" y2="142.22222222222223"></line><line x1="18" y1="170" x2="18" y2="156.11111111111111"></line></g><text x="9" y="107.5" text-anchor="middle" font-size="6" font-weight="700" letter-spacing="1" fill="#E20613" transform="rotate(-90 9 107.5)">GLUE</text><line x1="18" y1="0" x2="18" y2="215" stroke="#7DE0FF" stroke-width="0.7" stroke-dasharray="5 3" fill="none"></line><line x1="218" y1="3" x2="218" y2="212" stroke="#7DE0FF" stroke-width="0.7" stroke-dasharray="5 3" fill="none"></line><line x1="273" y1="0" x2="273" y2="215" stroke="#7DE0FF" stroke-width="0.7" stroke-dasharray="5 3" fill="none"></line><line x1="473" y1="3" x2="473" y2="212" stroke="#7DE0FF" stroke-width="0.7" stroke-dasharray="5 3" fill="none"></line><line x1="18" y1="45" x2="528" y2="45" stroke="#7DE0FF" stroke-width="0.7" stroke-dasharray="5 3" fill="none"></line><line x1="18" y1="170" x2="528" y2="170" stroke="#7DE0FF" stroke-width="0.7" stroke-dasharray="5 3" fill="none"></line><line x1="18" y1="229" x2="218" y2="229" stroke="#8A93A0" stroke-width="0.5"></line><line x1="18" y1="227" x2="18" y2="231" stroke="#8A93A0" stroke-width="0.5"></line><line x1="218" y1="227" x2="218" y2="231" stroke="#8A93A0" stroke-width="0.5"></line><rect x="107" y="224.5" width="22" height="9" fill="#0A0F1A"></rect><text x="118" y="231.6" text-anchor="middle" font-size="6.5" font-weight="600" fill="#C7CED6">200</text><line x1="218" y1="229" x2="273" y2="229" stroke="#8A93A0" stroke-width="0.5"></line><line x1="218" y1="227" x2="218" y2="231" stroke="#8A93A0" stroke-width="0.5"></line><line x1="273" y1="227" x2="273" y2="231" stroke="#8A93A0" stroke-width="0.5"></line><rect x="234.5" y="224.5" width="22" height="9" fill="#0A0F1A"></rect><text x="245.5" y="231.6" text-anchor="middle" font-size="6.5" font-weight="600" fill="#C7CED6">55</text><line x1="273" y1="229" x2="473" y2="229" stroke="#8A93A0" stroke-width="0.5"></line><line x1="273" y1="227" x2="273" y2="231" stroke="#8A93A0" stroke-width="0.5"></line><line x1="473" y1="227" x2="473" y2="231" stroke="#8A93A0" stroke-width="0.5"></line><rect x="362" y="224.5" width="22" height="9" fill="#0A0F1A"></rect><text x="373" y="231.6" text-anchor="middle" font-size="6.5" font-weight="600" fill="#C7CED6">200</text><line x1="473" y1="229" x2="528" y2="229" stroke="#8A93A0" stroke-width="0.5"></line><line x1="473" y1="227" x2="473" y2="231" stroke="#8A93A0" stroke-width="0.5"></line><line x1="528" y1="227" x2="528" y2="231" stroke="#8A93A0" stroke-width="0.5"></line><rect x="489.5" y="224.5" width="22" height="9" fill="#0A0F1A"></rect><text x="500.5" y="231.6" text-anchor="middle" font-size="6.5" font-weight="600" fill="#C7CED6">55</text><line x1="0" y1="245" x2="528" y2="245" stroke="#8A93A0" stroke-width="0.5"></line><line x1="0" y1="243" x2="0" y2="247" stroke="#8A93A0" stroke-width="0.5"></line><line x1="528" y1="243" x2="528" y2="247" stroke="#8A93A0" stroke-width="0.5"></line><rect x="253" y="240.5" width="22" height="9" fill="#0A0F1A"></rect><text x="264" y="247.6" text-anchor="middle" font-size="6.5" font-weight="600" fill="#C7CED6">528 mm  ·  UNFOLDED WIDTH</text><line x1="542" y1="45" x2="542" y2="170" stroke="#8A93A0" stroke-width="0.5"></line><line x1="540" y1="45" x2="544" y2="45" stroke="#8A93A0" stroke-width="0.5"></line><line x1="540" y1="170" x2="544" y2="170" stroke="#8A93A0" stroke-width="0.5"></line><rect x="531" y="103" width="22" height="9" fill="#0A0F1A"></rect><text x="542" y="110.1" text-anchor="middle" font-size="6.5" font-weight="600" fill="#C7CED6">125</text><line x1="542" y1="0" x2="542" y2="45" stroke="#8A93A0" stroke-width="0.5"></line><line x1="540" y1="0" x2="544" y2="0" stroke="#8A93A0" stroke-width="0.5"></line><line x1="540" y1="45" x2="544" y2="45" stroke="#8A93A0" stroke-width="0.5"></line><rect x="531" y="18" width="22" height="9" fill="#0A0F1A"></rect><text x="542" y="25.1" text-anchor="middle" font-size="6.5" font-weight="600" fill="#C7CED6">45</text><text x="373" y="-8" text-anchor="middle" font-size="7" font-weight="700" letter-spacing="1" fill="#6E7B8C">TUCK FLAP</text><text x="118" y="53" text-anchor="middle" font-size="7" font-weight="700" letter-spacing="2" fill="#fff" opacity="0.55">BACK</text><text x="373" y="53" text-anchor="middle" font-size="7" font-weight="700" letter-spacing="2" fill="#fff" opacity="0.55">FRONT</text></g></svg>